# xmcd
#
# Track frame offsets:
#	150
#	18516
#	37097
#	56721
#	74264
#
# Disc length: 1222 seconds
#
# Revision: 1
# Processed by: cddbd v1.5.1PL0 Copyright (c) Steve Scherf et al.
# Submitted via: CDex 1.50Beta5
#
DISCID=4304c405
DTITLE=クリスマスソング - Ricky's Testimony
DYEAR=2003
DGENRE=World
TTITLE0=ジングルベル
TTITLE1=Last Chiristmas
TTITLE2=恋人がサンタクロース
TTITLE3=クリスマスイブ
TTITLE4=We Wish A Merry Chiristmas
EXTD=
EXTT0=
EXTT1=
EXTT2=
EXTT3=
EXTT4=
PLAYORDER=
